<svg width="21" height="19" viewBox="0 0 21 19" fill="none" xmlns="http://www.w3.org/2000/svg">
<path d="M10.5 0C12.3984 0 14.1543 0.361899 15.7676 1.0857C17.3809 1.8095 18.6563 2.79372 19.5937 4.03835C20.5312 5.28293 21 6.64054 21 8.11114C21 9.58169 20.5312 10.9412 19.5937 12.1897C18.6563 13.4381 17.3828 14.4243 15.7734 15.1481C14.164 15.8718 12.4062 16.2338 10.5 16.2338C9.89845 16.2338 9.27732 16.1916 8.63672 16.1074C5.85545 17.9992 4.37501 18.9566 4.19532 18.9796C4.10938 19.0102 4.02732 19.0064 3.94921 18.9681C3.91795 18.9451 3.89453 18.9145 3.87889 18.8762C3.86326 18.8379 3.85547 18.8034 3.85547 18.7728V18.7268C3.90236 18.4281 4.2578 17.1835 4.92188 14.993C3.41406 14.2577 2.21679 13.283 1.33008 12.069C0.44336 10.8551 0 9.53576 0 8.11114C0 6.64054 0.46875 5.28293 1.40625 4.03835C2.34375 2.79372 3.61914 1.8095 5.23242 1.0857C6.8457 0.361899 8.60156 0 10.5 0Z" fill="black"/>
</svg>
