<svg width="28" height="27" viewBox="0 0 28 27" fill="none" xmlns="http://www.w3.org/2000/svg">
<path fill-rule="evenodd" clip-rule="evenodd" d="M14.3019 19.398C16.8424 19.398 19.2788 18.3888 21.0752 16.5924C22.8716 14.7961 23.8808 12.3596 23.8808 9.81914C23.8808 7.27865 22.8716 4.84222 21.0752 3.04583C19.2788 1.24944 16.8424 0.240234 14.3019 0.240234C11.7614 0.240234 9.32501 1.24944 7.52862 3.04583C5.73223 4.84222 4.72302 7.27865 4.72302 9.81914C4.72302 12.3596 5.73223 14.7961 7.52862 16.5924C9.32501 18.3888 11.7614 19.398 14.3019 19.398ZM14.3019 5.71389C13.9133 5.71389 13.6533 6.17915 13.1333 7.11378L12.9992 7.35462C12.8514 7.62009 12.7775 7.75146 12.6626 7.83904C12.5462 7.92662 12.4026 7.95946 12.1152 8.02378L11.8552 8.08399L11.8494 8.08529C10.8434 8.31294 10.3401 8.42682 10.2199 8.81198C10.0995 9.19788 10.4444 9.60156 11.1327 10.4062L11.3106 10.6142C11.3137 10.6178 11.3168 10.6214 11.3198 10.625C11.5094 10.8463 11.6055 10.9585 11.6486 11.0986C11.6918 11.2391 11.6777 11.3889 11.6497 11.6863C11.6493 11.6902 11.6489 11.6941 11.6486 11.698L11.6212 11.9758C11.5172 13.05 11.4652 13.5878 11.7786 13.8259C12.0933 14.064 12.5668 13.8464 13.5124 13.4112L13.7559 13.299L13.7598 13.2973C14.0268 13.1753 14.1603 13.1143 14.3019 13.1143C14.4436 13.1143 14.5771 13.1753 14.8441 13.2973L14.8479 13.299L15.0915 13.4112C16.0371 13.8477 16.5105 14.064 16.8253 13.8259C17.1388 13.5887 17.0871 13.0541 16.9838 11.9881C16.9834 11.984 16.983 11.9799 16.9826 11.9758L16.9553 11.698C16.9549 11.6941 16.9545 11.6902 16.9542 11.6863C16.9262 11.3889 16.9121 11.2391 16.9553 11.0986C16.9984 10.9585 17.0945 10.8463 17.284 10.625C17.2871 10.6214 17.2902 10.6178 17.2933 10.6142L17.4712 10.4062L17.4743 10.4025C18.1605 9.60034 18.5041 9.19866 18.3839 8.81198C18.2637 8.42683 17.7605 8.31295 16.7544 8.08529L16.7487 8.08399L16.4887 8.02378C16.4856 8.02309 16.4825 8.02241 16.4795 8.02173C16.1982 7.95878 16.0564 7.92704 15.9413 7.83904C15.8263 7.75146 15.7524 7.62009 15.6047 7.35462L15.4706 7.11378C14.9506 6.17915 14.6906 5.71389 14.3019 5.71389Z" fill="#EBD42D"/>
<path d="M14.3019 5.71389C13.9133 5.71389 13.6533 6.17915 13.1333 7.11378L12.9992 7.35462C12.8514 7.62009 12.7775 7.75146 12.6626 7.83904C12.5462 7.92662 12.4026 7.95946 12.1152 8.02378L11.8552 8.08399L11.8494 8.08529C10.8434 8.31294 10.3401 8.42682 10.2199 8.81198C10.0995 9.19788 10.4444 9.60156 11.1327 10.4062L11.3106 10.6142L11.3198 10.625C11.5094 10.8463 11.6055 10.9585 11.6486 11.0986C11.6918 11.2391 11.6777 11.3889 11.6497 11.6863L11.6486 11.698L11.6212 11.9758C11.5172 13.05 11.4652 13.5878 11.7786 13.8259C12.0933 14.064 12.5668 13.8464 13.5124 13.4112L13.7559 13.299L13.7598 13.2973C14.0268 13.1753 14.1603 13.1143 14.3019 13.1143C14.4436 13.1143 14.5771 13.1753 14.8441 13.2973L14.8479 13.299L15.0915 13.4112C16.0371 13.8477 16.5105 14.064 16.8253 13.8259C17.1388 13.5887 17.0871 13.0541 16.9838 11.9881L16.9826 11.9758L16.9553 11.698L16.9542 11.6863C16.9262 11.3889 16.9121 11.2391 16.9553 11.0986C16.9984 10.9585 17.0945 10.8463 17.284 10.625L17.2933 10.6142L17.4712 10.4062L17.4743 10.4025C18.1605 9.60034 18.5041 9.19866 18.3839 8.81198C18.2637 8.42683 17.7605 8.31295 16.7544 8.08529L16.7487 8.08399L16.4887 8.02378L16.4795 8.02173C16.1982 7.95878 16.0564 7.92704 15.9413 7.83904C15.8263 7.75146 15.7524 7.62009 15.6047 7.35462L15.4706 7.11378C14.9506 6.17915 14.6906 5.71389 14.3019 5.71389Z" fill="black"/>
<path d="M4.03189 15.2858L1.97516 17.4137C1.23622 18.18 0.866748 18.5618 0.738117 18.8861C0.446645 19.625 0.697065 20.4433 1.33064 20.832C1.6098 21.0016 2.11064 21.055 3.11642 21.1604C3.68295 21.2206 3.96758 21.2507 4.20431 21.3424C4.73662 21.5463 5.14852 21.9746 5.34694 22.5247C5.43452 22.771 5.46325 23.0638 5.52073 23.6509C5.62336 24.6909 5.67536 25.2109 5.83957 25.4996C6.21451 26.1565 7.00682 26.4151 7.71977 26.1127C8.03177 25.9813 8.40124 25.5981 9.14155 24.8332L12.538 21.3164C10.7485 21.0422 9.04779 20.3542 7.57109 19.307C6.0944 18.2598 4.88252 16.8838 4.03189 15.2858ZM16.0671 21.3177L19.4635 24.8346C20.2024 25.6009 20.5719 25.9827 20.8839 26.1154C21.5969 26.4165 22.3892 26.1578 22.7641 25.501C22.9283 25.2136 22.979 24.6936 23.0816 23.6536C23.1404 23.0652 23.1692 22.7724 23.2568 22.526C23.4538 21.9759 23.8671 21.5476 24.3994 21.3437C24.6361 21.2521 24.9194 21.2233 25.4873 21.1631C26.4917 21.0564 26.9939 21.003 27.273 20.8333C27.9066 20.4447 28.157 19.625 27.8656 18.8874C27.7369 18.5631 27.3675 18.18 26.6285 17.415L24.5718 15.2858C23.7212 16.8838 22.5093 18.2612 21.0326 19.3084C19.5559 20.3555 17.8552 21.0436 16.0657 21.3177" fill="white"/>
</svg>
