<svg width="26" height="26" viewBox="0 0 26 26" fill="none" xmlns="http://www.w3.org/2000/svg">
<path d="M12.736 25.6995C19.6395 25.6995 25.236 20.103 25.236 13.1995C25.236 6.2959 19.6395 0.699463 12.736 0.699463C5.8324 0.699463 0.235962 6.2959 0.235962 13.1995C0.235962 20.103 5.8324 25.6995 12.736 25.6995Z" fill="white"/>
<path d="M12.7359 5.5072C16.9859 5.5072 20.4283 8.94951 20.4283 13.1995M12.7359 5.5072C8.48595 5.5072 5.04364 8.94951 5.04364 13.1995M12.7359 5.5072V7.43028M20.4283 13.1995C20.4283 17.4495 16.9859 20.8919 12.7359 20.8919M20.4283 13.1995H18.5052M5.04364 13.1995C5.04364 17.4495 8.48595 20.8919 12.7359 20.8919M5.04364 13.1995H6.96672M12.7359 20.8919V18.9688" stroke="black" stroke-width="2" stroke-linecap="round"/>
<path d="M14.659 13.1996C14.659 14.2616 13.798 15.1226 12.7359 15.1226C11.6738 15.1226 10.8129 14.2616 10.8129 13.1996C10.8129 12.1375 11.6738 11.2765 12.7359 11.2765C13.798 11.2765 14.659 12.1375 14.659 13.1996Z" fill="black" stroke="black" stroke-width="2"/>
</svg>
