<svg width="31" height="30" viewBox="0 0 31 30" fill="none" xmlns="http://www.w3.org/2000/svg">
<path d="M10.3115 28.8984C10.4896 28.9709 10.6692 29.0407 10.8506 29.1064C10.6691 29.0407 10.4896 28.9709 10.3115 28.8984ZM9.30566 28.4443C4.36089 25.9918 0.960938 20.8937 0.960938 15C0.960938 6.71573 7.67667 0 15.9609 0C24.2452 0 30.9609 6.71573 30.9609 15C30.9609 21.0236 27.4096 26.2162 22.2871 28.6025C23.7328 27.9286 25.0542 27.0326 26.2051 25.9561C25.9304 24.9525 25.6121 23.9089 25.2607 22.9912C24.8802 21.9975 24.4377 21.0822 23.9365 20.543C21.8602 18.3104 19.3768 18.0043 16.0928 18.0049C12.8133 18.0044 10.1122 18.4336 8.2793 20.543C7.71285 21.195 7.2568 22.1593 6.88867 23.1895C6.54156 24.1609 6.26003 25.2337 6.03418 26.2441C7.01816 27.1135 8.11763 27.8547 9.30566 28.4443ZM16.0928 6.62012C13.5438 6.62012 11.4775 8.68635 11.4775 11.2354C11.4777 13.7842 13.5439 15.8506 16.0928 15.8506C18.6416 15.8505 20.7078 13.7841 20.708 11.2354C20.708 8.68642 18.6417 6.62023 16.0928 6.62012ZM9.54199 28.5596C9.47789 28.5292 9.41418 28.4981 9.35059 28.4668C9.41417 28.4981 9.4779 28.5292 9.54199 28.5596Z" fill="black"/>
</svg>
