<svg width="29" height="26" viewBox="0 0 29 26" fill="none" xmlns="http://www.w3.org/2000/svg">
<path fill-rule="evenodd" clip-rule="evenodd" d="M14.3566 19.1578C16.8971 19.1578 19.3335 18.1486 21.1299 16.3522C22.9263 14.5558 23.9355 12.1194 23.9355 9.5789C23.9355 7.03842 22.9263 4.60199 21.1299 2.8056C19.3335 1.0092 16.8971 0 14.3566 0C11.8161 0 9.3797 1.0092 7.58331 2.8056C5.78691 4.60199 4.77771 7.03842 4.77771 9.5789C4.77771 12.1194 5.78691 14.5558 7.58331 16.3522C9.3797 18.1486 11.8161 19.1578 14.3566 19.1578ZM14.3566 5.47366C13.968 5.47366 13.708 5.93892 13.188 6.87355L13.0539 7.11439C12.9061 7.37986 12.8322 7.51123 12.7173 7.59881C12.6009 7.68638 12.4573 7.71923 12.1699 7.78354L11.9099 7.84375L11.9041 7.84505C10.8981 8.07271 10.3948 8.18659 10.2746 8.57175C10.1542 8.95764 10.4991 9.36132 11.1874 10.166L11.3653 10.374C11.3684 10.3776 11.3714 10.3812 11.3745 10.3847C11.5641 10.6061 11.6602 10.7183 11.7033 10.8584C11.7465 10.9989 11.7324 11.1487 11.7044 11.4461C11.704 11.4499 11.7036 11.4538 11.7033 11.4577L11.6759 11.7355C11.5719 12.8097 11.5199 13.3475 11.8333 13.5856C12.148 13.8237 12.6215 13.6061 13.567 13.171L13.8106 13.0588L13.8145 13.057C14.0815 12.935 14.215 12.874 14.3566 12.874C14.4982 12.874 14.6318 12.935 14.8988 13.057L14.9026 13.0588L15.1462 13.171C16.0918 13.6075 16.5652 13.8237 16.88 13.5856C17.1935 13.3484 17.1417 12.8138 17.0385 11.7479C17.0381 11.7438 17.0377 11.7396 17.0373 11.7355L17.01 11.4577C17.0096 11.4538 17.0092 11.4499 17.0089 11.4461C16.9809 11.1487 16.9667 10.9989 17.01 10.8584C17.0531 10.7183 17.1492 10.6061 17.3387 10.3847C17.3418 10.3812 17.3449 10.3776 17.348 10.374L17.5259 10.166L17.529 10.1623C18.2152 9.36011 18.5588 8.95843 18.4386 8.57175C18.3184 8.18659 17.8151 8.07271 16.8091 7.84506L16.8033 7.84375L16.5433 7.78354C16.5403 7.78286 16.5372 7.78217 16.5342 7.78149C16.2529 7.71855 16.111 7.6868 15.996 7.59881C15.881 7.51123 15.8071 7.37986 15.6593 7.11439L15.5252 6.87355C15.0052 5.93892 14.7452 5.47366 14.3566 5.47366Z" fill="#CEAC7F"/>
<path d="M14.3566 5.47366C13.968 5.47366 13.708 5.93892 13.188 6.87355L13.0539 7.11439C12.9061 7.37986 12.8322 7.51123 12.7173 7.59881C12.6009 7.68638 12.4573 7.71923 12.1699 7.78354L11.9099 7.84375L11.9041 7.84505C10.8981 8.07271 10.3948 8.18659 10.2746 8.57175C10.1542 8.95764 10.4991 9.36132 11.1874 10.166L11.3653 10.374L11.3745 10.3847C11.5641 10.6061 11.6602 10.7183 11.7033 10.8584C11.7465 10.9989 11.7324 11.1487 11.7044 11.4461L11.7033 11.4577L11.6759 11.7355C11.5719 12.8097 11.5199 13.3475 11.8333 13.5856C12.148 13.8237 12.6215 13.6061 13.567 13.171L13.8106 13.0588L13.8145 13.057C14.0815 12.935 14.215 12.874 14.3566 12.874C14.4982 12.874 14.6318 12.935 14.8988 13.057L14.9026 13.0588L15.1462 13.171C16.0918 13.6075 16.5652 13.8237 16.88 13.5856C17.1935 13.3484 17.1417 12.8138 17.0385 11.7479L17.0373 11.7355L17.01 11.4577L17.0089 11.4461C16.9809 11.1487 16.9667 10.9989 17.01 10.8584C17.0531 10.7183 17.1492 10.6061 17.3387 10.3847L17.348 10.374L17.5259 10.166L17.529 10.1623C18.2152 9.36011 18.5588 8.95843 18.4386 8.57175C18.3184 8.18659 17.8151 8.07271 16.8091 7.84506L16.8033 7.84375L16.5433 7.78354L16.5342 7.78149C16.2529 7.71855 16.111 7.6868 15.996 7.59881C15.881 7.51123 15.8071 7.37986 15.6593 7.11439L15.5252 6.87355C15.0052 5.93892 14.7452 5.47366 14.3566 5.47366Z" fill="white"/>
<path d="M4.08664 15.0456L2.02991 17.1734C1.29097 17.9398 0.921497 18.3215 0.792866 18.6459C0.501393 19.3848 0.751813 20.2031 1.38539 20.5917C1.66455 20.7614 2.16539 20.8148 3.17117 20.9202C3.73769 20.9804 4.02232 21.0105 4.25906 21.1022C4.79137 21.3061 5.20327 21.7344 5.40169 22.2845C5.48926 22.5308 5.518 22.8236 5.57547 23.4107C5.67811 24.4507 5.73011 24.9707 5.89432 25.2594C6.26926 25.9162 7.06157 26.1749 7.77452 25.8725C8.08652 25.7411 8.45599 25.3579 9.1963 24.593L12.5927 21.0762C10.8033 20.802 9.10254 20.114 7.62584 19.0668C6.14915 18.0196 4.93726 16.6436 4.08664 15.0456ZM16.1218 21.0775L19.5183 24.5944C20.2572 25.3607 20.6267 25.7425 20.9387 25.8752C21.6516 26.1762 22.4439 25.9176 22.8189 25.2608C22.9831 24.9734 23.0337 24.4534 23.1363 23.4134C23.1952 22.825 23.2239 22.5322 23.3115 22.2858C23.5086 21.7357 23.9218 21.3074 24.4541 21.1035C24.6909 21.0118 24.9741 20.9831 25.542 20.9229C26.5464 20.8162 27.0486 20.7628 27.3278 20.5931C27.9614 20.2045 28.2118 19.3848 27.9203 18.6472C27.7917 18.3229 27.4222 17.9398 26.6833 17.1748L24.6265 15.0456C23.7759 16.6436 22.564 18.021 21.0873 19.0682C19.6106 20.1153 17.9099 20.8034 16.1205 21.0775" fill="black"/>
</svg>
