<svg width="29" height="27" viewBox="0 0 29 27" fill="none" xmlns="http://www.w3.org/2000/svg">
<path fill-rule="evenodd" clip-rule="evenodd" d="M14.3566 19.398C16.8971 19.398 19.3335 18.3888 21.1299 16.5924C22.9263 14.7961 23.9355 12.3596 23.9355 9.81914C23.9355 7.27865 22.9263 4.84222 21.1299 3.04583C19.3335 1.24944 16.8971 0.240234 14.3566 0.240234C11.8161 0.240234 9.3797 1.24944 7.58331 3.04583C5.78691 4.84222 4.77771 7.27865 4.77771 9.81914C4.77771 12.3596 5.78691 14.7961 7.58331 16.5924C9.3797 18.3888 11.8161 19.398 14.3566 19.398ZM14.3566 5.71389C13.968 5.71389 13.708 6.17915 13.188 7.11378L13.0539 7.35462C12.9061 7.62009 12.8322 7.75146 12.7173 7.83904C12.6009 7.92662 12.4573 7.95946 12.1699 8.02378L11.9099 8.08399L11.9041 8.08529C10.8981 8.31294 10.3948 8.42682 10.2746 8.81198C10.1542 9.19788 10.4991 9.60156 11.1874 10.4062L11.3653 10.6142C11.3684 10.6178 11.3714 10.6214 11.3745 10.625C11.5641 10.8463 11.6602 10.9585 11.7033 11.0986C11.7465 11.2391 11.7324 11.3889 11.7044 11.6863C11.704 11.6902 11.7036 11.6941 11.7033 11.698L11.6759 11.9758C11.5719 13.05 11.5199 13.5878 11.8333 13.8259C12.148 14.064 12.6215 13.8464 13.567 13.4112L13.8106 13.299L13.8145 13.2973C14.0815 13.1753 14.215 13.1143 14.3566 13.1143C14.4982 13.1143 14.6318 13.1753 14.8988 13.2973L14.9026 13.299L15.1462 13.4112C16.0918 13.8477 16.5652 14.064 16.88 13.8259C17.1935 13.5887 17.1417 13.0541 17.0385 11.9881C17.0381 11.984 17.0377 11.9799 17.0373 11.9758L17.01 11.698C17.0096 11.6941 17.0092 11.6902 17.0089 11.6863C16.9809 11.3889 16.9667 11.2391 17.01 11.0986C17.0531 10.9585 17.1492 10.8463 17.3387 10.625C17.3418 10.6214 17.3449 10.6178 17.348 10.6142L17.5259 10.4062L17.529 10.4025C18.2152 9.60034 18.5588 9.19866 18.4386 8.81198C18.3184 8.42683 17.8151 8.31295 16.8091 8.08529L16.8033 8.08399L16.5433 8.02378C16.5403 8.02309 16.5372 8.02241 16.5342 8.02173C16.2529 7.95878 16.111 7.92704 15.996 7.83904C15.881 7.75146 15.8071 7.62009 15.6593 7.35462L15.5252 7.11378C15.0052 6.17915 14.7452 5.71389 14.3566 5.71389Z" fill="#CEAC7F"/>
<path d="M14.3566 5.71389C13.968 5.71389 13.708 6.17915 13.188 7.11378L13.0539 7.35462C12.9061 7.62009 12.8322 7.75146 12.7173 7.83904C12.6009 7.92662 12.4573 7.95946 12.1699 8.02378L11.9099 8.08399L11.9041 8.08529C10.8981 8.31294 10.3948 8.42682 10.2746 8.81198C10.1542 9.19788 10.4991 9.60156 11.1874 10.4062L11.3653 10.6142L11.3745 10.625C11.5641 10.8463 11.6602 10.9585 11.7033 11.0986C11.7465 11.2391 11.7324 11.3889 11.7044 11.6863L11.7033 11.698L11.6759 11.9758C11.5719 13.05 11.5199 13.5878 11.8333 13.8259C12.148 14.064 12.6215 13.8464 13.567 13.4112L13.8106 13.299L13.8145 13.2973C14.0815 13.1753 14.215 13.1143 14.3566 13.1143C14.4982 13.1143 14.6318 13.1753 14.8988 13.2973L14.9026 13.299L15.1462 13.4112C16.0918 13.8477 16.5652 14.064 16.88 13.8259C17.1935 13.5887 17.1417 13.0541 17.0385 11.9881L17.0373 11.9758L17.01 11.698L17.0089 11.6863C16.9809 11.3889 16.9667 11.2391 17.01 11.0986C17.0531 10.9585 17.1492 10.8463 17.3387 10.625L17.348 10.6142L17.5259 10.4062L17.529 10.4025C18.2152 9.60034 18.5588 9.19866 18.4386 8.81198C18.3184 8.42683 17.8151 8.31295 16.8091 8.08529L16.8033 8.08399L16.5433 8.02378L16.5342 8.02173C16.2529 7.95878 16.111 7.92704 15.996 7.83904C15.881 7.75146 15.8071 7.62009 15.6593 7.35462L15.5252 7.11378C15.0052 6.17915 14.7452 5.71389 14.3566 5.71389Z" fill="black"/>
<path d="M4.08664 15.2858L2.02991 17.4137C1.29097 18.18 0.921497 18.5618 0.792866 18.8861C0.501393 19.625 0.751813 20.4433 1.38539 20.832C1.66455 21.0017 2.16539 21.055 3.17117 21.1604C3.73769 21.2206 4.02232 21.2507 4.25906 21.3424C4.79137 21.5463 5.20327 21.9746 5.40169 22.5247C5.48926 22.771 5.518 23.0639 5.57547 23.6509C5.67811 24.6909 5.73011 25.2109 5.89432 25.4996C6.26926 26.1565 7.06157 26.4151 7.77452 26.1127C8.08652 25.9813 8.45599 25.5982 9.1963 24.8332L12.5927 21.3164C10.8033 21.0422 9.10254 20.3542 7.62584 19.307C6.14915 18.2598 4.93726 16.8838 4.08664 15.2858ZM16.1218 21.3178L19.5183 24.8346C20.2572 25.6009 20.6267 25.9827 20.9387 26.1154C21.6516 26.4165 22.4439 26.1578 22.8189 25.501C22.9831 25.2136 23.0337 24.6936 23.1363 23.6536C23.1952 23.0652 23.2239 22.7724 23.3115 22.5261C23.5086 21.976 23.9218 21.5477 24.4541 21.3438C24.6909 21.2521 24.9741 21.2233 25.542 21.1631C26.5464 21.0564 27.0486 21.003 27.3278 20.8333C27.9614 20.4447 28.2118 19.625 27.9203 18.8875C27.7917 18.5631 27.4222 18.18 26.6833 17.415L24.6265 15.2858C23.7759 16.8838 22.564 18.2612 21.0873 19.3084C19.6106 20.3556 17.9099 21.0436 16.1205 21.3178" fill="white"/>
</svg>
