<svg width="20" height="24" viewBox="0 0 20 24" fill="none" xmlns="http://www.w3.org/2000/svg">
<path fill-rule="evenodd" clip-rule="evenodd" d="M0 10C0 4.47692 4.47692 0 10 0C15.5231 0 20 4.47692 20 10C20 13.5831 18.1508 16.5974 16.1405 18.822C14.1241 21.0533 11.8708 22.5738 10.8908 23.1841C10.624 23.3521 10.3152 23.4412 10 23.4412C9.68478 23.4412 9.37598 23.3521 9.10923 23.1841C8.12974 22.5738 5.8759 21.0533 3.85949 18.822C1.84923 16.5974 0 13.5831 0 10Z" fill="black"/>
<path d="M6.36534 4.44086C6.11187 4.49719 5.95426 4.5546 5.77066 4.7382C5.51102 4.99784 5.47333 5.26301 5.47333 5.63021C5.47333 5.9974 5.87759 6.45273 6.36534 6.52242C7.01559 6.61533 7.55468 5.92775 7.55468 5.33308C7.55468 4.73841 7.35481 4.5804 6.96001 4.44106C6.74101 4.36377 6.59204 4.39048 6.36534 4.44086Z" fill="#94D460" stroke="#94D460"/>
<path d="M4.35227 10.0601C4.6496 10.3574 4.64962 10.9522 4.64962 10.9522C4.64962 10.9522 4.65419 11.3379 4.35228 11.5469C4.06587 11.7452 3.75707 11.9428 3.45974 11.9428C3.13131 11.9428 2.74824 11.8443 2.56772 11.3481C2.42454 10.9546 2.50146 10.0691 2.86508 9.86138C3.26837 9.63098 4.05493 9.7628 4.35227 10.0601Z" fill="#CDE9B5" stroke="#CDE9B5"/>
<path d="M13.8845 5.20583C13.7706 5.61058 13.2518 5.90146 13.2518 5.90146C13.2518 5.90146 12.9176 6.09404 12.5877 5.93291C12.2746 5.78005 11.7836 5.38728 11.7467 5.04088C11.7119 4.7143 11.8123 4.34068 12.234 4.08594C12.5924 3.8694 13.1423 3.93106 13.5014 4.14665C13.8996 4.38575 13.9985 4.80108 13.8845 5.20583Z" fill="#699B39" stroke="#699B39"/>
<path d="M17.6065 9.66579C17.4925 10.0705 17.4618 10.177 17.2233 10.3906C16.9498 10.6356 16.6286 10.688 16.3313 10.688C15.9829 10.688 15.4762 10.1423 15.4393 9.79595C15.4045 9.46937 15.5342 8.80064 15.9559 8.54591C16.3143 8.32936 16.8643 8.39102 17.2233 8.60661C17.6215 8.84571 17.7204 9.26104 17.6065 9.66579Z" fill="#39561B" stroke="#39561B"/>
<path d="M11.6037 8.5693C11.1624 8.31552 10.8483 8.13487 10.2985 8.07848C9.45753 7.99223 8.94407 8.24171 8.21711 8.67316C7.51103 9.09221 7.08192 9.4178 6.73043 10.1598C6.47697 10.6949 6.40493 11.0551 6.4331 11.6465C6.43505 11.6874 6.43675 11.7273 6.4384 11.7661C6.45612 12.1811 6.46907 12.4847 6.73043 12.8359C6.98038 13.1717 7.21853 13.3204 7.62244 13.4305C7.95852 13.5222 8.17837 13.5222 8.51445 13.4305C8.82169 13.3467 8.95713 13.0817 9.08953 12.8225C9.23021 12.5472 9.36747 12.2786 9.70379 12.2412C9.8192 12.2284 9.88619 12.2246 10.0011 12.2411C10.2582 12.2778 10.4122 12.3548 10.5958 12.5384C10.8931 12.8357 11.0839 13.023 11.4878 13.1332C11.8239 13.2249 12.0374 13.1974 12.3798 13.1332C12.8902 13.0375 13.2518 12.9496 13.5692 12.5385C13.8617 12.1595 13.8784 11.8278 13.8665 11.3492C13.8509 10.7241 13.6329 10.373 13.2718 9.8625C12.8589 9.27851 12.1544 8.88129 11.8227 8.69422L11.7852 8.67304C11.7219 8.63727 11.6617 8.60265 11.6037 8.5693Z" fill="#263E10" stroke="#263E10"/>
</svg>
