<svg width="28" height="26" viewBox="0 0 28 26" fill="none" xmlns="http://www.w3.org/2000/svg">
<path fill-rule="evenodd" clip-rule="evenodd" d="M14.3019 19.1578C16.8424 19.1578 19.2788 18.1486 21.0752 16.3522C22.8716 14.5558 23.8808 12.1194 23.8808 9.5789C23.8808 7.03842 22.8716 4.60199 21.0752 2.8056C19.2788 1.0092 16.8424 0 14.3019 0C11.7614 0 9.32501 1.0092 7.52862 2.8056C5.73223 4.60199 4.72302 7.03842 4.72302 9.5789C4.72302 12.1194 5.73223 14.5558 7.52862 16.3522C9.32501 18.1486 11.7614 19.1578 14.3019 19.1578ZM14.3019 5.47366C13.9133 5.47366 13.6533 5.93892 13.1333 6.87355L12.9992 7.11439C12.8514 7.37986 12.7775 7.51123 12.6626 7.59881C12.5462 7.68638 12.4026 7.71923 12.1152 7.78354L11.8552 7.84375L11.8494 7.84505C10.8434 8.07271 10.3401 8.18659 10.2199 8.57175C10.0995 8.95764 10.4444 9.36132 11.1327 10.166L11.3106 10.374C11.3137 10.3776 11.3168 10.3812 11.3198 10.3847C11.5094 10.6061 11.6055 10.7183 11.6486 10.8584C11.6918 10.9989 11.6777 11.1487 11.6497 11.4461C11.6493 11.4499 11.6489 11.4538 11.6486 11.4577L11.6212 11.7355C11.5172 12.8097 11.4652 13.3475 11.7786 13.5856C12.0933 13.8237 12.5668 13.6061 13.5124 13.171L13.7559 13.0588L13.7598 13.057C14.0268 12.935 14.1603 12.874 14.3019 12.874C14.4436 12.874 14.5771 12.935 14.8441 13.057L14.8479 13.0588L15.0915 13.171C16.0371 13.6075 16.5105 13.8237 16.8253 13.5856C17.1388 13.3484 17.0871 12.8138 16.9838 11.7479C16.9834 11.7438 16.983 11.7396 16.9826 11.7355L16.9553 11.4577C16.9549 11.4538 16.9545 11.4499 16.9542 11.4461C16.9262 11.1487 16.9121 10.9989 16.9553 10.8584C16.9984 10.7183 17.0945 10.6061 17.284 10.3847C17.2871 10.3812 17.2902 10.3776 17.2933 10.374L17.4712 10.166L17.4743 10.1623C18.1605 9.36011 18.5041 8.95843 18.3839 8.57175C18.2637 8.18659 17.7605 8.07271 16.7544 7.84506L16.7487 7.84375L16.4887 7.78354C16.4856 7.78286 16.4825 7.78217 16.4795 7.78149C16.1982 7.71855 16.0564 7.6868 15.9413 7.59881C15.8263 7.51123 15.7524 7.37986 15.6047 7.11439L15.4706 6.87355C14.9506 5.93892 14.6906 5.47366 14.3019 5.47366Z" fill="#EBD42D"/>
<path d="M14.3019 5.47366C13.9133 5.47366 13.6533 5.93892 13.1333 6.87355L12.9992 7.11439C12.8514 7.37986 12.7775 7.51123 12.6626 7.59881C12.5462 7.68638 12.4026 7.71923 12.1152 7.78354L11.8552 7.84375L11.8494 7.84505C10.8434 8.07271 10.3401 8.18659 10.2199 8.57175C10.0995 8.95764 10.4444 9.36132 11.1327 10.166L11.3106 10.374L11.3198 10.3847C11.5094 10.6061 11.6055 10.7183 11.6486 10.8584C11.6918 10.9989 11.6777 11.1487 11.6497 11.4461L11.6486 11.4577L11.6212 11.7355C11.5172 12.8097 11.4652 13.3475 11.7786 13.5856C12.0933 13.8237 12.5668 13.6061 13.5124 13.171L13.7559 13.0588L13.7598 13.057C14.0268 12.935 14.1603 12.874 14.3019 12.874C14.4436 12.874 14.5771 12.935 14.8441 13.057L14.8479 13.0588L15.0915 13.171C16.0371 13.6075 16.5105 13.8237 16.8253 13.5856C17.1388 13.3484 17.0871 12.8138 16.9838 11.7479L16.9826 11.7355L16.9553 11.4577L16.9542 11.4461C16.9262 11.1487 16.9121 10.9989 16.9553 10.8584C16.9984 10.7183 17.0945 10.6061 17.284 10.3847L17.2933 10.374L17.4712 10.166L17.4743 10.1623C18.1605 9.36011 18.5041 8.95843 18.3839 8.57175C18.2637 8.18659 17.7605 8.07271 16.7544 7.84506L16.7487 7.84375L16.4887 7.78354L16.4795 7.78149C16.1982 7.71855 16.0564 7.6868 15.9413 7.59881C15.8263 7.51123 15.7524 7.37986 15.6047 7.11439L15.4706 6.87355C14.9506 5.93892 14.6906 5.47366 14.3019 5.47366Z" fill="white"/>
<path d="M4.03189 15.0456L1.97516 17.1734C1.23622 17.9398 0.866748 18.3215 0.738117 18.6459C0.446645 19.3848 0.697064 20.2031 1.33064 20.5917C1.6098 20.7614 2.11064 20.8148 3.11642 20.9202C3.68295 20.9804 3.96758 21.0105 4.20431 21.1022C4.73662 21.3061 5.14852 21.7344 5.34694 22.2845C5.43452 22.5308 5.46325 22.8236 5.52073 23.4107C5.62336 24.4507 5.67536 24.9707 5.83957 25.2594C6.21451 25.9162 7.00682 26.1749 7.71977 25.8725C8.03177 25.7411 8.40124 25.3579 9.14155 24.593L12.538 21.0762C10.7485 20.802 9.04779 20.114 7.57109 19.0668C6.0944 18.0196 4.88252 16.6436 4.03189 15.0456ZM16.0671 21.0775L19.4635 24.5944C20.2024 25.3607 20.5719 25.7425 20.8839 25.8752C21.5969 26.1762 22.3892 25.9176 22.7641 25.2608C22.9283 24.9734 22.979 24.4534 23.0816 23.4134C23.1404 22.825 23.1692 22.5322 23.2568 22.2858C23.4538 21.7357 23.8671 21.3074 24.3994 21.1035C24.6361 21.0118 24.9194 20.9831 25.4873 20.9229C26.4917 20.8162 26.9939 20.7628 27.273 20.5931C27.9066 20.2045 28.157 19.3848 27.8656 18.6472C27.7369 18.3229 27.3675 17.9398 26.6285 17.1748L24.5718 15.0456C23.7212 16.6436 22.5093 18.021 21.0326 19.0682C19.5559 20.1153 17.8552 20.8034 16.0657 21.0775" fill="black"/>
</svg>
