<svg width="28" height="26" viewBox="0 0 28 26" fill="none" xmlns="http://www.w3.org/2000/svg">
<path fill-rule="evenodd" clip-rule="evenodd" d="M14.0505 19.1578C16.5909 19.1578 19.0274 18.1486 20.8238 16.3522C22.6202 14.5558 23.6294 12.1194 23.6294 9.5789C23.6294 7.03842 22.6202 4.60199 20.8238 2.8056C19.0274 1.0092 16.5909 0 14.0505 0C11.51 0 9.07355 1.0092 7.27715 2.8056C5.48076 4.60199 4.47156 7.03842 4.47156 9.5789C4.47156 12.1194 5.48076 14.5558 7.27715 16.3522C9.07355 18.1486 11.51 19.1578 14.0505 19.1578ZM14.0505 5.47366C13.6618 5.47366 13.4018 5.93892 12.8818 6.87355L12.7477 7.11439C12.5999 7.37986 12.526 7.51123 12.4111 7.59881C12.2948 7.68638 12.1511 7.71923 11.8637 7.78354L11.6037 7.84375L11.598 7.84505C10.5919 8.07271 10.0887 8.18659 9.96848 8.57175C9.84806 8.95764 10.1929 9.36132 10.8812 10.166L11.0591 10.374C11.0622 10.3776 11.0653 10.3812 11.0683 10.3847C11.2579 10.6061 11.354 10.7183 11.3971 10.8584C11.4403 10.9989 11.4262 11.1487 11.3982 11.4461C11.3978 11.4499 11.3975 11.4538 11.3971 11.4577L11.3697 11.7355C11.2657 12.8097 11.2137 13.3475 11.5271 13.5856C11.8418 13.8237 12.3153 13.6061 13.2609 13.171L13.5045 13.0588L13.5083 13.057C13.7753 12.935 13.9088 12.874 14.0505 12.874C14.1921 12.874 14.3256 12.935 14.5926 13.057L14.5965 13.0588L14.84 13.171C15.7856 13.6075 16.2591 13.8237 16.5738 13.5856C16.8873 13.3484 16.8356 12.8138 16.7324 11.7479C16.732 11.7438 16.7316 11.7396 16.7312 11.7355L16.7038 11.4577C16.7034 11.4538 16.7031 11.4499 16.7027 11.4461C16.6747 11.1487 16.6606 10.9989 16.7038 10.8584C16.7469 10.7183 16.843 10.6061 17.0326 10.3847C17.0356 10.3812 17.0387 10.3776 17.0418 10.374L17.2197 10.166L17.2228 10.1623C17.9091 9.36011 18.2527 8.95843 18.1324 8.57175C18.0122 8.18659 17.509 8.07271 16.5029 7.84506L16.4972 7.84375L16.2372 7.78354C16.2341 7.78286 16.2311 7.78217 16.228 7.78149C15.9468 7.71855 15.8049 7.6868 15.6898 7.59881C15.5749 7.51123 15.501 7.37986 15.3532 7.11439L15.2191 6.87355C14.6991 5.93892 14.4391 5.47366 14.0505 5.47366Z" fill="#ACACAC"/>
<path d="M14.0505 5.47366C13.6618 5.47366 13.4018 5.93892 12.8818 6.87355L12.7477 7.11439C12.5999 7.37986 12.526 7.51123 12.4111 7.59881C12.2948 7.68638 12.1511 7.71923 11.8637 7.78354L11.6037 7.84375L11.598 7.84505C10.5919 8.07271 10.0887 8.18659 9.96848 8.57175C9.84806 8.95764 10.1929 9.36132 10.8812 10.166L11.0591 10.374L11.0683 10.3847C11.2579 10.6061 11.354 10.7183 11.3971 10.8584C11.4403 10.9989 11.4262 11.1487 11.3982 11.4461L11.3971 11.4577L11.3697 11.7355C11.2657 12.8097 11.2137 13.3475 11.5271 13.5856C11.8418 13.8237 12.3153 13.6061 13.2609 13.171L13.5045 13.0588L13.5083 13.057C13.7753 12.935 13.9088 12.874 14.0505 12.874C14.1921 12.874 14.3256 12.935 14.5926 13.057L14.5965 13.0588L14.84 13.171C15.7856 13.6075 16.2591 13.8237 16.5738 13.5856C16.8873 13.3484 16.8356 12.8138 16.7324 11.7479L16.7312 11.7355L16.7038 11.4577L16.7027 11.4461C16.6747 11.1487 16.6606 10.9989 16.7038 10.8584C16.7469 10.7183 16.843 10.6061 17.0326 10.3847L17.0418 10.374L17.2197 10.166L17.2228 10.1623C17.9091 9.36011 18.2527 8.95843 18.1324 8.57175C18.0122 8.18659 17.509 8.07271 16.5029 7.84506L16.4972 7.84375L16.2372 7.78354L16.228 7.78149C15.9468 7.71855 15.8049 7.6868 15.6898 7.59881C15.5749 7.51123 15.501 7.37986 15.3532 7.11439L15.2191 6.87355C14.6991 5.93892 14.4391 5.47366 14.0505 5.47366Z" fill="white"/>
<path d="M3.78049 15.0456L1.72376 17.1734C0.984816 17.9398 0.615344 18.3215 0.486713 18.6459C0.195241 19.3848 0.445661 20.2031 1.07924 20.5917C1.35839 20.7614 1.85923 20.8148 2.86502 20.9202C3.43154 20.9804 3.71617 21.0105 3.95291 21.1022C4.48522 21.3061 4.89711 21.7344 5.09553 22.2845C5.18311 22.5308 5.21185 22.8236 5.26932 23.4107C5.37195 24.4507 5.42395 24.9707 5.58816 25.2594C5.96311 25.9162 6.75542 26.1749 7.46837 25.8725C7.78036 25.7411 8.14984 25.3579 8.89015 24.593L12.2866 21.0762C10.4971 20.802 8.79639 20.114 7.31969 19.0668C5.843 18.0196 4.63111 16.6436 3.78049 15.0456ZM15.8157 21.0775L19.2121 24.5944C19.951 25.3607 20.3205 25.7425 20.6325 25.8752C21.3455 26.1762 22.1378 25.9176 22.5127 25.2608C22.6769 24.9734 22.7276 24.4534 22.8302 23.4134C22.889 22.825 22.9178 22.5322 23.0053 22.2858C23.2024 21.7357 23.6157 21.3074 24.148 21.1035C24.3847 21.0118 24.668 20.9831 25.2359 20.9229C26.2403 20.8162 26.7425 20.7628 27.0216 20.5931C27.6552 20.2045 27.9056 19.3848 27.6142 18.6472C27.4855 18.3229 27.1161 17.9398 26.3771 17.1748L24.3204 15.0456C23.4698 16.6436 22.2579 18.021 20.7812 19.0682C19.3045 20.1153 17.6038 20.8034 15.8143 21.0775" fill="black"/>
</svg>
