<svg width="131" height="131" viewBox="0 0 131 131" fill="none" xmlns="http://www.w3.org/2000/svg">
<circle cx="65.9148" cy="65.2941" r="65" fill="white"/>
<path d="M73.7726 25.3628C75.4773 25.3485 76.4454 25.4185 78.1261 25.7037C79.7324 25.9762 80.6404 26.179 82.1652 26.7535C84.0585 27.4668 85.0618 28.0605 86.7326 29.2017C88.3989 30.3399 89.2626 31.1037 90.6652 32.5542C91.8882 33.8191 92.4869 34.6185 93.5148 36.0464C94.2432 37.0583 94.6534 37.6308 95.2687 38.7154C95.7757 39.6091 96.0369 40.1272 96.4416 41.0718C97.055 42.5041 97.6833 44.8551 97.6945 44.897C97.7476 44.9012 100.446 45.1131 102.115 45.5582C103.643 45.9653 104.496 46.269 105.902 46.9908C107.685 47.9055 108.637 48.5789 110.09 49.9585C111.196 51.0085 111.77 51.6694 112.612 52.94C113.675 54.5421 114.076 55.5824 114.703 57.3999C115.369 59.3302 115.65 60.471 115.839 62.5044C115.964 63.8476 115.903 64.6109 115.873 65.9595C115.815 68.6179 115.93 70.1615 115.298 72.7447C114.952 74.1607 114.639 74.949 114.112 76.2642L114.055 76.4029C113.416 78 113.042 78.902 112.176 80.3882C111.472 81.597 111.051 82.2737 110.157 83.3501C109.165 84.5457 108.521 85.1593 107.306 86.1285C106.147 87.0527 105.437 87.5105 104.128 88.2056C103.281 88.6555 102.769 88.8655 101.902 89.2232L101.834 89.2505C101.098 89.5539 99.9274 89.9709 99.9211 89.9732C99.9203 89.9945 99.6518 97.9735 99.6007 103.09C99.5317 110.01 99.704 113.912 99.7726 120.79C89.9117 126.819 78.3194 130.294 65.9152 130.294C54.355 130.294 43.4996 127.276 34.0939 121.985C34.7819 117.479 35.2748 113.941 35.9406 108.377C36.6022 102.847 37.0772 94.1741 37.0812 94.1011C37.0333 94.0991 30.0916 93.7964 26.3107 91.774C22.7901 89.8906 20.921 88.2072 18.8224 84.8101C16.4828 81.0224 16.1741 78.2201 15.966 73.773C15.7709 69.6054 16.0721 66.9438 17.9103 63.1988C19.4541 60.0539 20.5944 58.5127 23.4093 56.4273C24.9204 55.308 27.5825 54.034 27.6095 54.021C27.6095 54.021 27 48.447 27.5197 44.938C27.939 42.1078 28.1323 40.3965 29.4992 37.8833C30.8434 35.4123 31.9791 34.1289 34.2453 32.4624C37.2678 30.24 39.5902 29.8241 43.2961 29.2398C46.232 28.7769 47.9796 28.6603 50.9084 29.1666C52.9475 29.5191 54.1515 29.7425 55.9777 30.7164C56.7326 31.1191 57.8169 31.8949 57.8429 31.9136C57.8658 31.8888 59.3727 30.2524 60.505 29.3941C62.0191 28.2468 63.0076 27.7609 64.7687 27.0494C66.493 26.3527 67.5325 26.1197 69.3625 25.7886C71.0646 25.4807 72.0429 25.3774 73.7726 25.3628Z" fill="black"/>
<path d="M46.8495 42.1366C45.4392 42.4643 44.5635 42.793 43.5496 43.8268C42.1159 45.2887 41.92 46.7694 41.9399 48.817C41.9597 50.8646 44.6528 52.7226 47.4002 52.7226C51.1762 52.7226 53.5618 50.3637 53.5296 47.0476C53.4975 43.7315 52.3744 42.8612 50.1655 42.1055C48.9402 41.6863 48.1109 41.8434 46.8495 42.1366Z" fill="#84AE61"/>
<path d="M40.8223 68.8234C42.5342 70.5023 42.5815 71.4992 42.6 73.446C42.615 75.0208 41.9099 75.9709 40.2 77.1794C38.5778 78.3259 37.4846 78.1541 35.8113 78.1541C33.9385 78.1541 33.0179 77.7445 31.5881 75.7464C30.1984 73.8043 31.2934 69.5076 33.3553 68.3029C35.6421 66.9668 39.1104 67.1444 40.8223 68.8234Z" fill="#B2CE9A"/>
<path d="M81.171 45.3638C80.473 47.4783 79.0562 48.0011 77.1184 48.5122C75.255 49.0037 72.8595 48.5122 71.942 47.8988C70.4085 46.8735 70.0138 45.8292 69.9003 43.988C69.7932 42.252 70.4122 40.299 72.7028 39.0506C74.6501 37.9894 77.5448 38.445 79.3934 39.6701C81.4436 41.0288 81.869 43.2494 81.171 45.3638Z" fill="#5C912A"/>
<path d="M102.561 62.7778C102.906 63.6892 103.184 65.816 102.561 67.2978C101.847 68.9971 99.9824 69.6706 98.666 70.3448C97.1236 71.1348 93.7742 69.8808 92.909 68.4387C92.0932 67.0791 91.3124 63.8396 92.6632 61.7614C93.8115 59.9948 96.4955 59.1421 98.5004 59.4668C100.817 59.8419 102.216 61.8665 102.561 62.7778Z" fill="#326102"/>
<path d="M74.0516 59.1724C72.0749 58.115 70.6678 57.3624 68.2423 57.1915C64.5323 56.9301 62.31 58.1038 59.1749 60.1109C56.1298 62.0603 54.2892 63.5579 52.8493 66.8823C51.8109 69.2796 51.5454 70.8793 51.7534 73.4852C51.7678 73.6655 51.7809 73.8411 51.7937 74.0123C51.9307 75.8412 52.0308 77.1788 53.2301 78.6916C54.3769 80.1383 55.4452 80.7605 57.237 81.1894C58.7278 81.5462 59.6945 81.515 61.1593 81.0629C62.4984 80.6495 63.8958 79.4924 64.4411 78.3301C65.0206 77.095 66.2884 76.491 67.1042 76.2614C67.5789 76.1277 68.2325 76.1524 68.7403 76.2086C69.8757 76.3342 70.6689 76.4273 71.5023 77.2114C72.8521 78.4814 72.3996 78.9003 74.1913 79.3292C75.6821 79.686 76.6172 79.5345 78.1136 79.2027C80.3443 78.708 81.9219 78.2688 83.2587 76.4098C84.4912 74.6959 84.5174 73.2295 84.3969 71.1191C84.2396 68.3627 83.2307 66.8446 81.5705 64.6427C79.6715 62.1241 76.5175 60.4711 75.0322 59.6926L74.8641 59.6044C74.581 59.4556 74.3114 59.3114 74.0516 59.1724Z" fill="#102D00"/>
</svg>
