<svg width="1024" height="1024" viewBox="0 0 1024 1024" fill="none" xmlns="http://www.w3.org/2000/svg">
<g clip-path="url(#clip0_606_35)">
<path d="M248.5 1026.5C248.5 1026.5 249.134 981.694 253.5 955.5C262.5 901.5 267.211 871.791 274.5 815.5C280.114 772.144 284.5 704 284.5 704C284.5 704 230.001 701.151 200.5 685C173.12 670.01 158.647 656.715 142.5 630C124.494 600.211 122.29 578.285 121 543.5C119.791 510.907 122.344 490.138 137 461C149.307 436.532 158.336 424.589 180.5 408.5C192.456 399.821 213.5 390 213.5 390C213.5 390 209.17 346.387 213.5 319C216.993 296.905 218.62 283.546 229.5 264C240.194 244.788 249.16 234.854 267 222C290.798 204.854 308.983 201.788 338 197.5C360.987 194.104 374.643 193.32 397.5 197.5C413.416 200.411 422.798 202.249 437 210C442.942 213.244 451.5 219.5 451.5 219.5C451.5 219.5 463.515 206.673 472.5 200C484.423 191.146 492.177 187.43 506 182C519.533 176.684 527.668 174.95 542 172.5C555.331 170.222 562.976 169.483 576.5 169.5C589.829 169.517 597.381 170.143 610.5 172.5C623.041 174.753 630.121 176.393 642 181C656.747 186.72 664.526 191.453 677.5 200.5C690.442 209.526 697.142 215.551 708 227C717.464 236.98 722.074 243.261 730 254.5C735.619 262.468 738.772 266.974 743.5 275.5C747.396 282.526 749.408 286.585 752.5 294C757.229 305.343 762 324 762 324C762 324 783.352 325.859 796.5 329.5C808.416 332.8 815.054 335.248 826 341C839.865 348.286 847.248 353.605 858.5 364.5C867.067 372.796 871.505 377.999 878 388C886.186 400.604 889.238 408.746 894 423C899.06 438.147 901.173 447.086 902.5 463C903.376 473.508 902.834 479.461 902.5 490C901.842 510.78 902.633 522.854 897.5 543C894.686 554.044 892.164 560.17 887.948 570.412L887.5 571.5C882.382 583.938 879.384 590.947 872.5 602.5C866.9 611.9 863.571 617.151 856.5 625.5C848.646 634.775 843.573 639.513 834 647C824.869 654.141 819.29 657.663 809 663C802.344 666.452 798.346 668.055 791.537 670.785L791 671C785.209 673.322 776 676.5 776 676.5C776 676.5 773.288 738.956 772.5 779C771.428 833.468 772.5 864.022 772.5 918.5V1026L248.5 1026.5Z" fill="black"/>
<path d="M371.058 305.033C362.461 306.944 357.115 308.891 350.888 315.119C342.081 323.926 340.802 332.921 340.802 345.377C340.802 357.832 354.514 373.277 371.058 375.641C393.114 378.793 411.399 355.47 411.399 335.298C411.399 315.126 404.62 309.767 391.229 305.04C383.801 302.418 378.748 303.324 371.058 305.033Z" fill="#94D460"/>
<path d="M312.166 509.22C323.152 520.205 323.152 542.182 323.152 542.182C323.152 542.182 323.321 556.431 312.167 564.154C301.585 571.481 290.175 578.783 279.19 578.783C267.055 578.783 252.902 575.143 246.233 556.81C240.942 542.269 243.784 509.553 257.219 501.877C272.119 493.364 301.18 498.234 312.166 509.22Z" fill="#CDE9B5"/>
<path d="M636.083 317.065C632.224 330.777 614.648 340.632 614.648 340.632C614.648 340.632 603.327 347.156 592.149 341.697C581.545 336.519 564.909 323.212 563.66 311.476C562.481 300.412 565.882 287.754 580.167 279.124C592.31 271.788 610.94 273.877 623.103 281.181C636.593 289.281 639.943 303.352 636.083 317.065Z" fill="#699B39"/>
<path d="M818.181 492.162C813.999 505.727 812.872 509.295 804.568 516.583C795.045 524.94 784.029 526.911 773.865 527.123C761.957 527.37 745.022 509.553 744.007 498.039C743.051 487.183 747.96 464.812 762.555 456.026C774.962 448.557 793.717 450.22 805.836 457.147C819.278 464.83 822.363 478.596 818.181 492.162Z" fill="#39561B"/>
<path d="M472.947 439.223C497.946 424.332 515.604 415.722 544.522 418.698C563.429 420.644 574.232 426.879 589.409 435.638C591.404 436.789 593.474 437.984 595.647 439.218L596.938 439.949C608.347 446.405 632.572 460.115 646.773 480.27C659.189 497.89 666.689 510.005 667.224 531.579C667.633 548.097 667.058 559.546 656.998 572.626C646.086 586.813 633.65 589.847 616.098 593.149C604.324 595.365 596.98 596.313 585.423 593.149C571.533 589.348 575.173 586.19 564.948 575.928C558.635 569.591 552.461 568.664 543.622 567.396C539.669 566.83 534.569 566.472 530.826 567.396C524.395 568.985 514.338 573.385 509.5 582.888C504.947 591.831 493.738 600.52 483.172 603.412C471.615 606.575 464.054 606.575 452.497 603.412C438.607 599.61 430.417 594.479 421.821 582.888C412.834 570.767 412.388 560.292 411.779 545.969C411.722 544.628 411.664 543.253 411.597 541.841C410.628 521.43 413.105 508.999 421.821 490.531C433.909 464.922 448.666 453.685 472.947 439.223Z" fill="#263E10"/>
<path d="M472.947 439.223C497.946 424.332 515.604 415.722 544.522 418.698C563.429 420.644 574.232 426.879 589.409 435.638C591.404 436.789 593.474 437.984 595.647 439.218L596.938 439.949C608.347 446.405 632.572 460.115 646.773 480.27C659.189 497.89 666.689 510.005 667.224 531.579C667.633 548.097 667.058 559.546 656.998 572.626C646.086 586.813 633.65 589.847 616.098 593.149C604.324 595.365 596.98 596.313 585.423 593.149C571.533 589.348 575.173 586.19 564.948 575.928C558.635 569.591 552.461 568.664 543.622 567.396C539.669 566.83 534.569 566.472 530.826 567.396C524.395 568.985 514.338 573.385 509.5 582.888C504.947 591.831 493.738 600.52 483.172 603.412C471.615 606.575 464.054 606.575 452.497 603.412C438.607 599.61 430.417 594.479 421.821 582.888C412.834 570.767 412.388 560.292 411.779 545.969C411.722 544.628 411.664 543.253 411.597 541.841C410.628 521.43 413.105 508.999 421.821 490.531C433.909 464.922 448.666 453.685 472.947 439.223Z" stroke="black"/>
</g>
<defs>
<clipPath id="clip0_606_35">
<rect width="1024" height="1024" fill="white"/>
</clipPath>
</defs>
</svg>
