<svg width="28" height="27" viewBox="0 0 28 27" fill="none" xmlns="http://www.w3.org/2000/svg">
<path fill-rule="evenodd" clip-rule="evenodd" d="M14.0505 19.398C16.5909 19.398 19.0274 18.3888 20.8238 16.5924C22.6202 14.7961 23.6294 12.3596 23.6294 9.81914C23.6294 7.27865 22.6202 4.84222 20.8238 3.04583C19.0274 1.24944 16.5909 0.240234 14.0505 0.240234C11.51 0.240234 9.07355 1.24944 7.27715 3.04583C5.48076 4.84222 4.47156 7.27865 4.47156 9.81914C4.47156 12.3596 5.48076 14.7961 7.27715 16.5924C9.07355 18.3888 11.51 19.398 14.0505 19.398ZM14.0505 5.71389C13.6618 5.71389 13.4018 6.17915 12.8818 7.11378L12.7477 7.35462C12.5999 7.62009 12.526 7.75146 12.4111 7.83904C12.2948 7.92662 12.1511 7.95946 11.8637 8.02378L11.6037 8.08399L11.598 8.08529C10.5919 8.31294 10.0887 8.42682 9.96848 8.81198C9.84806 9.19788 10.1929 9.60156 10.8812 10.4062L11.0591 10.6142C11.0622 10.6178 11.0653 10.6214 11.0683 10.625C11.2579 10.8463 11.354 10.9585 11.3971 11.0986C11.4403 11.2391 11.4262 11.3889 11.3982 11.6863C11.3978 11.6902 11.3975 11.6941 11.3971 11.698L11.3697 11.9758C11.2657 13.05 11.2137 13.5878 11.5271 13.8259C11.8418 14.064 12.3153 13.8464 13.2609 13.4112L13.5045 13.299L13.5083 13.2973C13.7753 13.1753 13.9088 13.1143 14.0505 13.1143C14.1921 13.1143 14.3256 13.1753 14.5926 13.2973L14.5965 13.299L14.84 13.4112C15.7856 13.8477 16.2591 14.064 16.5738 13.8259C16.8873 13.5887 16.8356 13.0541 16.7324 11.9881C16.732 11.984 16.7316 11.9799 16.7312 11.9758L16.7038 11.698C16.7034 11.6941 16.7031 11.6902 16.7027 11.6863C16.6747 11.3889 16.6606 11.2391 16.7038 11.0986C16.7469 10.9585 16.843 10.8463 17.0326 10.625C17.0356 10.6214 17.0387 10.6178 17.0418 10.6142L17.2197 10.4062L17.2228 10.4025C17.9091 9.60034 18.2527 9.19866 18.1324 8.81198C18.0122 8.42683 17.509 8.31295 16.5029 8.08529L16.4972 8.08399L16.2372 8.02378C16.2341 8.02309 16.2311 8.02241 16.228 8.02173C15.9468 7.95878 15.8049 7.92704 15.6898 7.83904C15.5749 7.75146 15.501 7.62009 15.3532 7.35462L15.2191 7.11378C14.6991 6.17915 14.4391 5.71389 14.0505 5.71389Z" fill="#ACACAC"/>
<path d="M14.0505 5.71389C13.6618 5.71389 13.4018 6.17915 12.8818 7.11378L12.7477 7.35462C12.5999 7.62009 12.526 7.75146 12.4111 7.83904C12.2948 7.92662 12.1511 7.95946 11.8637 8.02378L11.6037 8.08399L11.598 8.08529C10.5919 8.31294 10.0887 8.42682 9.96848 8.81198C9.84806 9.19788 10.1929 9.60156 10.8812 10.4062L11.0591 10.6142L11.0683 10.625C11.2579 10.8463 11.354 10.9585 11.3971 11.0986C11.4403 11.2391 11.4262 11.3889 11.3982 11.6863L11.3971 11.698L11.3697 11.9758C11.2657 13.05 11.2137 13.5878 11.5271 13.8259C11.8418 14.064 12.3153 13.8464 13.2609 13.4112L13.5045 13.299L13.5083 13.2973C13.7753 13.1753 13.9088 13.1143 14.0505 13.1143C14.1921 13.1143 14.3256 13.1753 14.5926 13.2973L14.5965 13.299L14.84 13.4112C15.7856 13.8477 16.2591 14.064 16.5738 13.8259C16.8873 13.5887 16.8356 13.0541 16.7324 11.9881L16.7312 11.9758L16.7038 11.698L16.7027 11.6863C16.6747 11.3889 16.6606 11.2391 16.7038 11.0986C16.7469 10.9585 16.843 10.8463 17.0326 10.625L17.0418 10.6142L17.2197 10.4062L17.2228 10.4025C17.9091 9.60034 18.2527 9.19866 18.1324 8.81198C18.0122 8.42683 17.509 8.31295 16.5029 8.08529L16.4972 8.08399L16.2372 8.02378L16.228 8.02173C15.9468 7.95878 15.8049 7.92704 15.6898 7.83904C15.5749 7.75146 15.501 7.62009 15.3532 7.35462L15.2191 7.11378C14.6991 6.17915 14.4391 5.71389 14.0505 5.71389Z" fill="black"/>
<path d="M3.78049 15.2858L1.72376 17.4137C0.984816 18.18 0.615344 18.5618 0.486713 18.8861C0.195241 19.625 0.445661 20.4433 1.07924 20.832C1.35839 21.0017 1.85923 21.055 2.86502 21.1604C3.43154 21.2206 3.71617 21.2507 3.95291 21.3424C4.48522 21.5463 4.89711 21.9746 5.09553 22.5247C5.18311 22.771 5.21185 23.0639 5.26932 23.6509C5.37195 24.6909 5.42395 25.2109 5.58816 25.4996C5.96311 26.1565 6.75542 26.4151 7.46837 26.1127C7.78036 25.9813 8.14984 25.5982 8.89015 24.8332L12.2866 21.3164C10.4971 21.0422 8.79639 20.3542 7.31969 19.307C5.843 18.2598 4.63111 16.8838 3.78049 15.2858ZM15.8157 21.3178L19.2121 24.8346C19.951 25.6009 20.3205 25.9827 20.6325 26.1154C21.3455 26.4165 22.1378 26.1578 22.5127 25.501C22.6769 25.2136 22.7276 24.6936 22.8302 23.6536C22.889 23.0652 22.9178 22.7724 23.0053 22.5261C23.2024 21.976 23.6157 21.5477 24.148 21.3438C24.3847 21.2521 24.668 21.2233 25.2359 21.1631C26.2403 21.0564 26.7425 21.003 27.0216 20.8333C27.6552 20.4447 27.9056 19.625 27.6142 18.8875C27.4855 18.5631 27.1161 18.18 26.3771 17.415L24.3204 15.2858C23.4698 16.8838 22.2579 18.2612 20.7812 19.3084C19.3045 20.3556 17.6038 21.0436 15.8143 21.3178" fill="white"/>
</svg>
