<svg width="16" height="14" viewBox="0 0 16 14" fill="none" xmlns="http://www.w3.org/2000/svg">
<path d="M8.17105 2.13565C7.91765 2.07242 7.75053 2.05255 7.50522 2.13196C7.15806 2.24471 7.00912 2.46081 6.84988 2.78354C6.69064 3.10627 6.85821 3.68652 7.26841 3.96499C7.81526 4.33623 8.60005 3.97236 8.85802 3.44955C9.11582 2.92706 9.00388 2.69911 8.70781 2.40089C8.54354 2.23546 8.39756 2.19235 8.17105 2.13565Z" fill="#94D460"/>
<path d="M5.50708 3.81176C5.65847 4.24181 5.37633 4.81369 5.37633 4.81369C5.37633 4.81369 5.19785 5.18675 4.80173 5.24127C4.42606 5.29281 4.0285 5.33315 3.73607 5.18885C3.41308 5.02949 3.083 4.74896 3.14097 4.18412C3.18687 3.73614 3.68258 2.9222 4.13876 2.8989C4.64481 2.87288 5.35581 3.38137 5.50708 3.81176Z" fill="#CDE9B5"/>
<path d="M11.9341 5.14946C11.6514 5.46355 11.054 5.49522 11.054 5.49522C11.054 5.49522 10.667 5.52017 10.4412 5.22807C10.227 4.95085 9.95892 4.37807 10.0797 4.04944C10.1938 3.73928 10.4504 3.44719 10.9441 3.40512C11.3637 3.36931 11.8322 3.66945 12.0601 4.02353C12.3127 4.4164 12.217 4.83506 11.9341 5.14946Z" fill="#699B39"/>
<path d="M13.4834 8.39309C13.1938 8.69943 13.117 8.77957 12.8002 8.86453C12.437 8.96182 12.1178 8.8697 11.8445 8.74161C11.5243 8.5919 11.3075 7.89509 11.4318 7.57529C11.5489 7.27375 11.9734 6.74279 12.4773 6.70065C12.9056 6.6648 13.383 6.95542 13.6146 7.29906C13.8715 7.68015 13.7728 8.08705 13.4834 8.39309Z" fill="#39561B"/>
<path d="M9.71049 7.22839C9.41158 6.80462 9.19872 6.50319 8.71484 6.21323C7.9745 5.7701 7.39288 5.77607 6.53565 5.85648C5.70319 5.93437 5.16679 6.04667 4.52334 6.57412C4.05944 6.95423 3.83816 7.25306 3.61032 7.80699C3.59448 7.84547 3.57898 7.88254 3.56379 7.91897C3.40211 8.30655 3.28365 8.59042 3.37446 9.02533C3.46136 9.44114 3.61768 9.68036 3.94368 9.95636C4.21494 10.1859 4.41815 10.2811 4.76815 10.3428C5.08816 10.399 5.49737 10.3099 5.73104 10.1298C5.97926 9.93859 6.3043 9.94852 6.49689 9.98739C6.60912 10.0098 6.74167 10.0837 6.84083 10.1486C7.06271 10.2934 7.21703 10.3959 7.30801 10.6434C7.45512 11.0446 7.31791 11.0827 7.64407 11.3584C7.91533 11.588 8.12447 11.6554 8.46853 11.7448C8.98129 11.8784 9.35324 11.9547 9.82307 11.7155C10.2562 11.4951 10.4141 11.1984 10.6085 10.7547C10.8626 10.1754 10.8116 9.75959 10.6971 9.13545C10.5662 8.42159 10.0856 7.75261 9.85919 7.43776L9.83368 7.40187C9.79064 7.34167 9.74976 7.28407 9.71049 7.22839Z" fill="#263E10"/>
</svg>
