<svg width="30" height="30" viewBox="0 0 30 30" fill="none" xmlns="http://www.w3.org/2000/svg">
<path d="M14.9873 0.0449219C23.2083 0.0449229 29.873 6.70963 29.873 14.9307C29.873 20.4835 26.8312 25.3243 22.3242 27.8828C22.4644 27.8033 22.604 27.7226 22.7412 27.6387C22.7255 26.0639 22.6863 25.1706 22.7021 23.5859C22.7138 22.4167 22.775 20.5948 22.7754 20.582C22.785 20.5786 23.047 20.4854 23.2129 20.417L23.2285 20.4102C23.427 20.3283 23.5444 20.2798 23.7383 20.1768C24.0381 20.0176 24.2014 19.9129 24.4668 19.7012C24.7446 19.4794 24.8921 19.339 25.1191 19.0654C25.3239 18.8189 25.4198 18.6635 25.5811 18.3867C25.7793 18.0463 25.8654 17.8394 26.0117 17.4736L26.0244 17.4424C26.1451 17.1413 26.2177 16.9609 26.2969 16.6367C26.4416 16.0452 26.4145 15.6908 26.4277 15.082C26.4346 14.7735 26.4495 14.5984 26.4209 14.291C26.3776 13.8255 26.3127 13.5641 26.1602 13.1221C26.0166 12.706 25.925 12.4674 25.6816 12.1006C25.4889 11.8098 25.3565 11.6583 25.1035 11.418C24.771 11.1023 24.5525 10.9477 24.1445 10.7383C23.8225 10.5731 23.6271 10.5033 23.2773 10.4102C22.898 10.3091 22.2871 10.2605 22.2656 10.2588C22.2619 10.2449 22.1184 9.70945 21.9785 9.38281C21.8859 9.16659 21.8251 9.04836 21.709 8.84375C21.5681 8.59541 21.4744 8.46413 21.3076 8.23242C21.0723 7.90544 20.9353 7.72223 20.6553 7.43262C20.3342 7.10052 20.1363 6.9256 19.7549 6.66504C19.3724 6.40377 19.1424 6.26782 18.709 6.10449C18.3598 5.97293 18.1511 5.92571 17.7832 5.86328C17.3987 5.79808 17.1772 5.78187 16.7871 5.78516C16.3911 5.78848 16.1669 5.81234 15.7773 5.88281C15.3582 5.95861 15.1195 6.01235 14.7246 6.17188C14.3215 6.33474 14.0947 6.44634 13.748 6.70898C13.4876 6.9065 13.1409 7.28368 13.1387 7.28613C13.1315 7.28097 12.8843 7.10373 12.7119 7.01172C12.2937 6.78871 12.0177 6.73795 11.5508 6.65723C10.8801 6.54128 10.48 6.56783 9.80762 6.67383C8.95896 6.80764 8.42653 6.90221 7.73438 7.41113C7.21551 7.79269 6.95624 8.08753 6.64844 8.65332C6.33546 9.22875 6.29035 9.62045 6.19434 10.2686C6.07578 11.0692 6.21386 12.3394 6.21484 12.3486C6.20048 12.3555 5.59661 12.6449 5.25293 12.8994C4.60846 13.3769 4.34762 13.7302 3.99414 14.4502C3.57318 15.3078 3.50415 15.9177 3.54883 16.8721C3.59648 17.8904 3.66737 18.5321 4.20312 19.3994C4.6837 20.1773 5.11177 20.5628 5.91797 20.9941C6.78506 21.4578 8.37817 21.527 8.38477 21.5273C8.38332 21.5538 8.27418 23.5336 8.12305 24.7969C7.97063 26.0708 7.85766 26.8806 7.7002 27.9121C3.16556 25.3612 0.101653 20.5041 0.101562 14.9307C0.101562 6.70963 6.76627 0.0449219 14.9873 0.0449219Z" fill="black"/>
<path d="M10.6212 9.6268C10.2983 9.70187 10.0977 9.77715 9.86553 10.0139C9.53718 10.3487 9.49234 10.6878 9.49687 11.1567C9.50143 11.6256 10.1181 12.0511 10.7473 12.0511C11.6121 12.0511 12.1584 11.5109 12.151 10.7515C12.1437 9.99207 11.8865 9.79276 11.3806 9.6197C11.1 9.5237 10.9101 9.55966 10.6212 9.6268Z" fill="black"/>
<path d="M9.24086 15.7385C9.63289 16.123 9.64373 16.3513 9.64796 16.7971C9.6514 17.1578 9.48992 17.3753 9.09834 17.6521C8.72685 17.9146 8.4765 17.8753 8.09332 17.8753C7.66444 17.8753 7.45359 17.7815 7.12618 17.3239C6.80792 16.8792 7.05866 15.8952 7.53086 15.6193C8.05455 15.3133 8.84884 15.354 9.24086 15.7385Z" fill="black"/>
<path d="M18.481 10.366C18.3212 10.8502 17.9968 10.9699 17.553 11.087C17.1262 11.1995 16.5777 11.087 16.3675 10.9465C16.0164 10.7117 15.926 10.4725 15.9 10.0509C15.8754 9.65333 16.0172 9.20608 16.5418 8.92019C16.9877 8.67714 17.6506 8.7815 18.074 9.06206C18.5435 9.37321 18.6409 9.88172 18.481 10.366Z" fill="black"/>
<path d="M23.3796 14.3539C23.4586 14.5626 23.5223 15.0496 23.3796 15.389C23.2158 15.7781 22.789 15.9324 22.4875 16.0868C22.1343 16.2677 21.3673 15.9805 21.1692 15.6503C20.9823 15.3389 20.8035 14.597 21.1129 14.1211C21.3758 13.7166 21.9905 13.5213 22.4496 13.5956C22.9802 13.6815 23.3006 14.1452 23.3796 14.3539Z" fill="black"/>
<path d="M16.8508 13.5283C16.3981 13.2862 16.0758 13.1138 15.5204 13.0747C14.6708 13.0148 14.1618 13.2836 13.4439 13.7432C12.7465 14.1897 12.325 14.5326 11.9953 15.294C11.7575 15.843 11.6966 16.2093 11.7443 16.806C11.7476 16.8474 11.7506 16.8876 11.7535 16.9268C11.7849 17.3456 11.8078 17.6519 12.0825 17.9984C12.3451 18.3297 12.5898 18.4722 13.0001 18.5704C13.3415 18.6521 13.5629 18.645 13.8983 18.5414C14.205 18.4468 14.525 18.1817 14.6499 17.9156C14.7826 17.6327 15.0729 17.4944 15.2597 17.4418C15.3685 17.4112 15.5181 17.4169 15.6344 17.4298C15.8944 17.4585 16.0761 17.4798 16.267 17.6594C16.576 17.9502 16.4724 18.0462 16.8828 18.1444C17.2242 18.2261 17.4383 18.1914 17.781 18.1154C18.2918 18.0021 18.6531 17.9016 18.9593 17.4758C19.2415 17.0833 19.2475 16.7475 19.2199 16.2642C19.1839 15.633 18.9528 15.2853 18.5726 14.7811C18.1377 14.2043 17.4155 13.8257 17.0753 13.6475L17.0368 13.6273C16.972 13.5932 16.9102 13.5601 16.8508 13.5283Z" fill="black"/>
</svg>
