<svg width="324" height="88" viewBox="0 0 324 88" fill="none" xmlns="http://www.w3.org/2000/svg">
<path d="M0.4 85.1V75.4H22.7V53.1H33.2V75.4H55.5V85.1H0.4ZM34.4 49.2H21.5C10 49.2 1.6 39.7 1.6 25.2C1.6 10.7 10 1.2 21.5 1.2H34.4C45.9 1.2 54.3 10.7 54.3 25.2C54.3 39.7 45.9 49.2 34.4 49.2ZM11.9 25.2C11.9 34.4 15.7 39.7 22.5 39.7H33.4C40.2 39.7 44 34.4 44 25.2C44 16 40.2 10.7 33.4 10.7H22.5C15.7 10.7 11.9 16 11.9 25.2ZM62.4117 43.8V34.4H117.512V43.8H62.4117ZM114.712 72.5H75.4117V77.8H115.412V86.6H65.2117V64.1H104.512V58.9H65.2117V50.1H114.712V72.5ZM65.2117 1.5H75.6117V19H115.012V28.2H65.2117V1.5ZM177.023 0.699994V87.1H166.623V0.699994H177.023ZM123.723 84.1V74.5H163.223V84.1H123.723ZM160.623 15.5V39.5C160.623 48.5 152.623 54.3 143.123 54.3C133.623 54.3 125.623 48.5 125.623 39.5V15.5C125.623 6.5 133.623 0.699994 143.123 0.699994C152.623 0.699994 160.623 6.5 160.623 15.5ZM150.423 38.7V16.3C150.423 12.5 147.323 10 143.123 10C138.923 10 135.823 12.5 135.823 16.3V38.7C135.823 42.5 138.923 45 143.123 45C147.323 45 150.423 42.5 150.423 38.7ZM207.278 11.3V2.09999H240.878V11.3L217.278 85.3H206.578L220.678 41.5H206.178V32.5H223.578L230.378 11.3H207.278ZM235.678 47.4V37.8H247.678V0.699994H258.078V87.1H247.678V47.4H235.678ZM320.09 0.699994V54.2H309.69V0.699994H320.09ZM301.89 45.6H268.69V1.7H301.89V45.6ZM291.69 10.9H278.89V36.4H291.69V10.9ZM323.19 86.6H311.49L296.19 60.6L280.99 86.6H269.29L289.59 53.2H302.89L323.19 86.6Z" fill="white"/>
</svg>
