<svg width="10" height="11" viewBox="0 0 10 11" fill="none" xmlns="http://www.w3.org/2000/svg">
<path d="M0.629375 6.13713C0.511047 6.13713 0.412158 6.08467 0.332713 5.97975C0.25327 5.87483 0.21327 5.74477 0.212713 5.58957C0.212158 5.43438 0.252158 5.30469 0.332713 5.20049C0.41327 5.09629 0.512158 5.0442 0.629375 5.0442H8.96271C9.08104 5.0442 9.17994 5.09666 9.25938 5.20158C9.33883 5.3065 9.37883 5.43656 9.37938 5.59176C9.37994 5.74696 9.33994 5.87664 9.25938 5.98084C9.17883 6.08504 9.07994 6.13713 8.96271 6.13713H0.629375ZM0.629375 1.76541C0.511047 1.76541 0.412158 1.71295 0.332713 1.60803C0.25327 1.50311 0.21327 1.37305 0.212713 1.21786C0.212158 1.06266 0.252158 0.932968 0.332713 0.828774C0.41327 0.724581 0.512158 0.672485 0.629375 0.672485H8.96271C9.08104 0.672485 9.17994 0.724946 9.25938 0.829867C9.33883 0.934788 9.37883 1.06485 9.37938 1.22004C9.37994 1.37524 9.33994 1.50493 9.25938 1.60913C9.17883 1.71332 9.07994 1.76541 8.96271 1.76541H0.629375Z" fill="white"/>
<path d="M0.332713 10.5151C0.412158 10.62 0.511047 10.6725 0.629375 10.6725H8.96271C9.07994 10.6725 9.17883 10.6204 9.25938 10.5162C9.33994 10.412 9.37994 10.2823 9.37938 10.1271C9.37883 9.97192 9.33883 9.84186 9.25938 9.73694C9.17994 9.63202 9.08104 9.57956 8.96271 9.57956H0.629375C0.512158 9.57956 0.41327 9.63165 0.332713 9.73585C0.252158 9.84005 0.212158 9.96973 0.212713 10.1249C0.21327 10.2801 0.25327 10.4102 0.332713 10.5151Z" fill="white"/>
</svg>
