<svg width="12" height="11" viewBox="0 0 12 11" fill="none" xmlns="http://www.w3.org/2000/svg">
<path d="M4.26343 1.04745C4.00533 1.08737 3.84358 1.13383 3.64823 1.30212C3.37191 1.54061 3.31837 1.79754 3.29666 2.15677C3.27496 2.51599 3.65433 2.98594 4.1404 3.08364C4.7884 3.21391 5.3708 2.5743 5.40596 1.99237C5.4411 1.41081 5.24956 1.24406 4.86104 1.08391C4.6455 0.995079 4.49421 1.01192 4.26343 1.04745Z" fill="#94D460"/>
<path d="M2.45738 3.62509C2.76362 3.96285 2.7252 4.59938 2.7252 4.59938C2.7252 4.59938 2.70526 5.01245 2.36123 5.21624C2.03491 5.40936 1.68406 5.60064 1.35856 5.58097C0.99905 5.55925 0.586046 5.42859 0.420553 4.88544C0.289233 4.45468 0.430707 3.51224 0.842197 3.31395C1.29861 3.09381 2.15112 3.28698 2.45738 3.62509Z" fill="#CDE9B5"/>
<path d="M8.90051 2.3671C8.76162 2.76622 8.22321 3.02696 8.22321 3.02696C8.22321 3.02696 7.87614 3.19996 7.5547 3.01824C7.24979 2.84571 6.7807 2.42159 6.76468 2.07183C6.7496 1.74171 6.873 1.37297 7.31171 1.14286C7.68464 0.947226 8.23291 1.04228 8.5802 1.28037C8.96538 1.5446 9.03943 1.96762 8.90051 2.3671Z" fill="#699B39"/>
<path d="M11.5859 4.7567C11.4376 5.15135 11.3979 5.25501 11.1388 5.4561C10.8417 5.68657 10.5117 5.72536 10.2102 5.71319C9.85694 5.69932 9.38707 5.14098 9.37765 4.79803C9.36871 4.47468 9.55422 3.82069 10.0024 3.58653C10.3834 3.38746 10.9361 3.47033 11.2827 3.69735C11.6673 3.94908 11.734 4.36241 11.5859 4.7567Z" fill="#39561B"/>
<path d="M7.65642 5.14538C7.21662 4.8706 6.90358 4.67523 6.34513 4.59549C5.49091 4.47395 4.95706 4.70488 4.19801 5.11127C3.46081 5.50573 3.00987 5.81716 2.62116 6.55277C2.34085 7.08298 2.25269 7.44421 2.25736 8.04315C2.25767 8.08476 2.25776 8.12494 2.25788 8.16441C2.25905 8.58436 2.25988 8.89195 2.51217 9.25767C2.75343 9.60729 2.99026 9.76723 3.39775 9.89529C3.73678 10.0018 3.96101 10.0108 4.30754 9.93195C4.62433 9.85974 4.96701 9.61898 5.11263 9.36245C5.26732 9.08994 5.5708 8.9731 5.7634 8.93428C5.87554 8.91143 6.02636 8.92817 6.14294 8.94958C6.4036 8.99706 6.58559 9.03177 6.76537 9.22461C7.05651 9.53749 6.9448 9.62579 7.3523 9.75349C7.69133 9.85995 7.91026 9.84104 8.2621 9.79016C8.78656 9.71458 9.15899 9.6407 9.49937 9.23807C9.81319 8.86708 9.84375 8.53231 9.85107 8.04799C9.8607 7.4155 9.65256 7.05192 9.30511 6.52095C8.90768 5.91366 8.2054 5.48323 7.87464 5.28075L7.83722 5.25755C7.77421 5.21875 7.7142 5.18149 7.65642 5.14538Z" fill="#263E10"/>
</svg>
