<svg width="76" height="69" viewBox="0 0 76 69" fill="none" xmlns="http://www.w3.org/2000/svg">
<path d="M38.7117 9.06743C37.3783 8.73471 36.499 8.63017 35.2082 9.04804C33.3815 9.6413 32.5978 10.7784 31.7599 12.4765C30.922 14.1747 31.8037 17.2279 33.9621 18.6931C36.8396 20.6466 40.969 18.7319 42.3264 15.981C43.6829 13.2317 43.0939 12.0323 41.536 10.4631C40.6717 9.59263 39.9035 9.36578 38.7117 9.06743Z" fill="#94D460"/>
<path d="M24.6942 17.887C25.4908 20.1498 24.0062 23.159 24.0062 23.159C24.0062 23.159 23.0671 25.1219 20.9828 25.4088C19.006 25.68 16.9141 25.8923 15.3754 25.133C13.6759 24.2945 11.9391 22.8184 12.2441 19.8463C12.4856 17.4891 15.0939 13.2062 17.4943 13.0836C20.1571 12.9467 23.8983 15.6223 24.6942 17.887Z" fill="#CDE9B5"/>
<path d="M58.5125 24.9257C57.0247 26.5784 53.8814 26.745 53.8814 26.745C53.8814 26.745 51.8451 26.8763 50.6566 25.3393C49.5295 23.8806 48.1191 20.8667 48.7547 19.1375C49.3549 17.5055 50.7054 15.9685 53.3027 15.7472C55.5106 15.5588 57.9761 17.138 59.1751 19.0012C60.5045 21.0684 60.001 23.2713 58.5125 24.9257Z" fill="#699B39"/>
<path d="M66.6645 41.9932C65.1406 43.6051 64.7363 44.0268 63.0695 44.4738C61.1583 44.9858 59.4789 44.501 58.0411 43.827C56.3559 43.0393 55.2154 39.3728 55.8692 37.69C56.4853 36.1034 58.7189 33.3096 61.3704 33.0878C63.6242 32.8992 66.1361 34.4284 67.3547 36.2366C68.7064 38.2418 68.1873 40.3829 66.6645 41.9932Z" fill="#39561B"/>
<path d="M46.812 35.8647C45.2391 33.6349 44.1191 32.0489 41.573 30.5231C37.6774 28.1915 34.617 28.2228 30.1064 28.646C25.7261 29.0558 22.9037 29.6467 19.5179 32.4221C17.0769 34.4222 15.9126 35.9946 14.7137 38.9092C14.6304 39.1117 14.5489 39.3068 14.4689 39.4985C13.6182 41.5379 12.9949 43.0315 13.4727 45.32C13.9299 47.5079 14.7525 48.7667 16.4678 50.2189C17.8952 51.4267 18.9644 51.9279 20.8061 52.2522C22.4899 52.5481 24.6431 52.0791 25.8726 51.1318C27.1788 50.1254 28.8891 50.1777 29.9025 50.3822C30.493 50.5 31.1904 50.8888 31.7122 51.2304C32.8797 51.9923 33.6917 52.5319 34.1705 53.8339C34.9445 55.9453 34.2226 56.1458 35.9387 57.5963C37.3661 58.8041 38.4666 59.1589 40.277 59.6296C42.975 60.3327 44.9322 60.7339 47.4043 59.4751C49.6832 58.3156 50.5141 56.7541 51.5374 54.4198C52.874 51.3716 52.606 49.1835 52.0035 45.8994C51.3144 42.1432 48.7858 38.6231 47.5944 36.9664L47.4601 36.7776C47.2337 36.4608 47.0186 36.1577 46.812 35.8647Z" fill="#263E10"/>
</svg>
