<svg width="12" height="10" viewBox="0 0 12 10" fill="none" xmlns="http://www.w3.org/2000/svg">
<path d="M4.43244 0.461265C4.17434 0.501191 4.01258 0.547651 3.81724 0.715938C3.54091 0.954428 3.48738 1.21136 3.46567 1.57059C3.44396 1.92981 3.82333 2.39976 4.3094 2.49746C4.9574 2.62773 5.53981 1.98812 5.57497 1.40619C5.61011 0.824625 5.41856 0.657875 5.03005 0.49773C4.8145 0.408897 4.66322 0.425738 4.43244 0.461265Z" fill="#C2C3C0"/>
<path d="M2.62638 3.03891C2.93263 3.37666 2.8942 4.0132 2.8942 4.0132C2.8942 4.0132 2.87426 4.42627 2.53024 4.63006C2.20391 4.82318 1.85307 5.01446 1.52756 4.99479C1.16806 4.97307 0.755053 4.84241 0.589559 4.29926C0.458239 3.8685 0.599714 2.92606 1.0112 2.72777C1.46761 2.50763 2.32012 2.7008 2.62638 3.03891Z" fill="#C2C3C0"/>
<path d="M9.06952 1.78092C8.93062 2.18004 8.39222 2.44078 8.39222 2.44078C8.39222 2.44078 8.04514 2.61378 7.7237 2.43206C7.41879 2.25953 6.94971 1.83541 6.93368 1.48565C6.91861 1.15553 7.042 0.786785 7.48072 0.556683C7.85365 0.361044 8.40191 0.456103 8.7492 0.694192C9.13438 0.958416 9.20844 1.38144 9.06952 1.78092Z" fill="#C2C3C0"/>
<path d="M11.7549 4.17052C11.6066 4.56517 11.5669 4.66882 11.3078 4.86992C11.0107 5.10039 10.6807 5.13918 10.3792 5.12701C10.0259 5.11314 9.55608 4.5548 9.54665 4.21184C9.53772 3.88849 9.72323 3.23451 10.1714 3.00035C10.5524 2.80128 11.1051 2.88415 11.4518 3.11117C11.8363 3.3629 11.903 3.77623 11.7549 4.17052Z" fill="#C2C3C0"/>
<path d="M7.82543 4.5592C7.38563 4.28442 7.07258 4.08905 6.51413 4.0093C5.65992 3.88777 5.12607 4.1187 4.36702 4.52509C3.62982 4.91955 3.17888 5.23098 2.79017 5.96659C2.50986 6.4968 2.4217 6.85803 2.42637 7.45697C2.42668 7.49858 2.42677 7.53876 2.42688 7.57823C2.42806 7.99818 2.42889 8.30577 2.68117 8.67148C2.92244 9.02111 3.15926 9.18105 3.56675 9.30911C3.90578 9.41557 4.13002 9.42461 4.47655 9.34577C4.79334 9.27356 5.13601 9.0328 5.28164 8.77627C5.43633 8.50375 5.73981 8.38692 5.93241 8.3481C6.04455 8.32524 6.19537 8.34199 6.31195 8.3634C6.57261 8.41088 6.7546 8.44559 6.93438 8.63843C7.22552 8.95131 7.1138 9.03961 7.52131 9.16731C7.86034 9.27377 8.07927 9.25486 8.43111 9.20397C8.95556 9.1284 9.32799 9.05452 9.66837 8.65189C9.9822 8.28089 10.0128 7.94613 10.0201 7.46181C10.0297 6.82932 9.82157 6.46574 9.47411 5.93477C9.07669 5.32748 8.3744 4.89705 8.04365 4.69457L8.00622 4.67137C7.94322 4.63257 7.88321 4.59531 7.82543 4.5592Z" fill="#C2C3C0"/>
</svg>
