<svg width="45" height="42" viewBox="0 0 45 42" fill="none" xmlns="http://www.w3.org/2000/svg">
<path d="M23.1198 5.64412C22.3198 5.44449 21.7922 5.38176 21.0177 5.63249C19.9217 5.98844 19.4515 6.67069 18.9487 7.68959C18.446 8.70849 18.975 10.5404 20.2701 11.4195C21.9965 12.5916 24.4742 11.4428 25.2886 9.79226C26.1026 8.14271 25.7491 7.42302 24.8144 6.48153C24.2958 5.95924 23.8349 5.82313 23.1198 5.64412Z" fill="#94D460"/>
<path d="M14.7093 10.9358C15.1873 12.2935 14.2965 14.099 14.2965 14.099C14.2965 14.099 13.733 15.2768 12.4824 15.4489C11.2964 15.6116 10.0413 15.739 9.11801 15.2834C8.0983 14.7803 7.05622 13.8946 7.23922 12.1114C7.38415 10.6971 8.94913 8.12736 10.3893 8.0538C11.987 7.97164 14.2317 9.57701 14.7093 10.9358Z" fill="#CDE9B5"/>
<path d="M35.0003 15.1591C34.1077 16.1508 32.2217 16.2507 32.2217 16.2507C32.2217 16.2507 30.9999 16.3295 30.2868 15.4073C29.6105 14.5321 28.7643 12.7238 29.1457 11.6862C29.5058 10.707 30.3161 9.78486 31.8745 9.65204C33.1992 9.53901 34.6785 10.4866 35.3979 11.6044C36.1956 12.8448 35.8934 14.1665 35.0003 15.1591Z" fill="#699B39"/>
<path d="M39.8914 25.3996C38.9771 26.3668 38.7346 26.6198 37.7345 26.888C36.5877 27.1952 35.5801 26.9043 34.7174 26.4999C33.7063 26.0273 33.022 23.8274 33.4143 22.8177C33.784 21.8658 35.1241 20.1894 36.715 20.0564C38.0673 19.9432 39.5745 20.8607 40.3056 21.9457C41.1166 23.1488 40.8052 24.4334 39.8914 25.3996Z" fill="#39561B"/>
<path d="M27.98 21.7225C27.0362 20.3846 26.3642 19.433 24.8366 18.5175C22.4992 17.1185 20.663 17.1374 17.9566 17.3912C15.3284 17.6372 13.635 17.9917 11.6035 19.6569C10.1389 20.857 9.44034 21.8004 8.72102 23.5492C8.67101 23.6707 8.6221 23.7877 8.57414 23.9028C8.06367 25.1264 7.6897 26.0226 7.9764 27.3956C8.25074 28.7084 8.74425 29.4637 9.77347 30.335C10.6299 31.0597 11.2714 31.3604 12.3764 31.555C13.3867 31.7325 14.6786 31.4511 15.4164 30.8827C16.2 30.2789 17.2262 30.3103 17.8343 30.433C18.1886 30.5037 18.607 30.737 18.9201 30.9419C19.6206 31.3991 20.1078 31.7228 20.3951 32.504C20.8595 33.7709 20.4263 33.8911 21.456 34.7614C22.3124 35.4861 22.9727 35.699 24.059 35.9814C25.6778 36.4033 26.8521 36.644 28.3354 35.8887C29.7027 35.193 30.2013 34.2561 30.8152 32.8556C31.6172 31.0266 31.4564 29.7138 31.0949 27.7433C30.6814 25.4896 29.1642 23.3775 28.4494 22.3835L28.3689 22.2702C28.233 22.0802 28.1039 21.8983 27.98 21.7225Z" fill="#263E10"/>
</svg>
