<svg width="30" height="30" viewBox="0 0 30 30" fill="none" xmlns="http://www.w3.org/2000/svg">
<circle cx="15" cy="15" r="14.75" fill="#FFFDFD" stroke="#C7C7C7" stroke-width="0.5"/>
<path d="M15.7949 21.2386C15.7949 21.6998 16.22 22.0529 16.6668 21.9521C17.4739 21.7647 18.2378 21.4476 18.9152 21.0152C19.2972 20.7702 19.3548 20.2225 19.0305 19.8982C18.7999 19.6676 18.4324 19.61 18.1586 19.7829C17.6037 20.136 16.9911 20.3955 16.3353 20.5396C16.011 20.6117 15.7949 20.9071 15.7949 21.2386ZM9.31628 14.9186C9.31628 12.1874 11.226 9.89572 13.7843 9.30479C14.1013 9.23273 14.3247 8.93726 14.3247 8.61298C14.3247 8.15176 13.8924 7.79865 13.4456 7.90675C11.8613 8.27402 10.4482 9.16714 9.43656 10.4405C8.42495 11.7138 7.87452 13.2923 7.875 14.9186C7.875 18.3344 10.2531 21.1954 13.4456 21.9376C13.8924 22.0457 14.3247 21.6926 14.3247 21.2314C14.3247 20.8999 14.1013 20.6117 13.7843 20.5396C11.226 19.9415 9.31628 17.6498 9.31628 14.9186ZM21.3942 14.198C21.8555 14.198 22.2086 13.7728 22.1077 13.326C21.9203 12.5189 21.6032 11.7622 21.1708 11.0776C20.9258 10.6884 20.3781 10.638 20.0538 10.9623C19.8232 11.1929 19.7656 11.5604 19.9458 11.8342C20.2989 12.3819 20.5583 12.9945 20.7024 13.6575C20.7673 13.9818 21.0627 14.198 21.3942 14.198ZM18.9152 8.82917C18.2306 8.39678 17.4739 8.0797 16.6668 7.89233C16.22 7.79144 15.7949 8.14456 15.7949 8.59856C15.7949 8.92285 16.011 9.22552 16.3281 9.29038C16.9839 9.43451 17.6037 9.70115 18.1514 10.0471C18.4324 10.22 18.7927 10.1696 19.0233 9.93175C19.1011 9.85835 19.1611 9.76811 19.1986 9.66796C19.2361 9.5678 19.2502 9.46039 19.2397 9.35395C19.2293 9.24751 19.1946 9.14487 19.1384 9.05391C19.0821 8.96294 19.0058 8.88606 18.9152 8.82917ZM20.0466 18.8749C20.3709 19.1992 20.9186 19.1488 21.1636 18.7596C21.596 18.0822 21.9131 17.3183 22.1005 16.5112C22.2014 16.0644 21.8482 15.6392 21.3942 15.6392C21.07 15.6392 20.7673 15.8554 20.7024 16.1725C20.5583 16.8283 20.2917 17.448 19.9458 17.9957C19.7584 18.2768 19.816 18.6443 20.0466 18.8749Z" fill="black"/>
<path d="M17.9424 14.2701C17.9424 12.4757 16.5732 11.3154 15.0598 11.3154C13.5465 11.3154 12.1772 12.4757 12.1772 14.2701C12.1772 15.3582 12.97 16.6338 14.5626 18.0895C14.8436 18.3489 15.2688 18.3489 15.5571 18.0895C17.1497 16.6266 17.9424 15.3582 17.9424 14.2701ZM15.0598 14.9186C14.8611 14.91 14.6733 14.825 14.5357 14.6814C14.3982 14.5377 14.3214 14.3465 14.3214 14.1476C14.3214 13.9486 14.3982 13.7574 14.5357 13.6137C14.6733 13.4701 14.8611 13.3851 15.0598 13.3765C15.2586 13.3851 15.4463 13.4701 15.5839 13.6137C15.7215 13.7574 15.7983 13.9486 15.7983 14.1476C15.7983 14.3465 15.7215 14.5377 15.5839 14.6814C15.4463 14.825 15.2586 14.91 15.0598 14.9186Z" fill="black"/>
</svg>
