<svg width="9" height="10" viewBox="0 0 9 10" fill="none" xmlns="http://www.w3.org/2000/svg">
<path d="M4.40607 1.25586C6.61607 1.25586 8.40607 3.04586 8.40607 5.25586M4.40607 1.25586C2.19607 1.25586 0.406067 3.04586 0.406067 5.25586M4.40607 1.25586V2.25586M8.40607 5.25586C8.40607 7.46586 6.61607 9.25586 4.40607 9.25586M8.40607 5.25586H7.40607M4.40607 9.25586C2.19607 9.25586 0.406067 7.46586 0.406067 5.25586M4.40607 9.25586V8.25586M0.406067 5.25586H1.40607" stroke="white" stroke-width="0.8" stroke-linecap="round"/>
<path d="M5.40607 5.25586C5.40607 5.80814 4.95835 6.25586 4.40607 6.25586C3.85378 6.25586 3.40607 5.80814 3.40607 5.25586C3.40607 4.70357 3.85378 4.25586 4.40607 4.25586C4.95835 4.25586 5.40607 4.70357 5.40607 5.25586Z" fill="white"/>
</svg>
